<?xml version="1.0" standalone="no"?>
<svg xmlns="http://www.w3.org/2000/svg" viewBox="0 0 103.646 119.68" width="103.646" height="119.68"><polygon fill="none" stroke="#ead017" stroke-width="3" points="102.146,30.67 102.146,89.01 51.823,118.18 1.5,89.01 1.5,30.67 51.823,1.5"></polygon><g fill="#000000" color="#000000" transform="translate(29.823 22.5) scale(1.0476191)"><svg width="42.0" height="42.0" x="0.0" y="0.0" viewBox="0 0 42 42"><path fill="currentColor" fill-rule="nonzero" d="M21 41.41L41.41.59H.59L21 41.41zm0-7.61l-11.5-23h15.4l-1.7 3.4H15l6 12 9.4-18.8H7.8L6.1 4h29.8L21 33.8z"></path></svg></g><path fill="#000000" fill-rule="nonzero" d="M6.10 22.68L3.70 22.68L0 0L2.63 0L5.07 16.30L8.12 0.08L10.36 0.08L13.44 16.38L15.82 0L18.40 0L14.76 22.68L12.46 22.68L9.30 5.88L6.10 22.68Z" transform="translate(42.625, 74.5)"></path></svg>